<svg width="42" height="33" viewBox="0 0 42 33" fill="none" xmlns="http://www.w3.org/2000/svg">
<mask id="path-1-inside-1" fill="white">
<path fill-rule="evenodd" clip-rule="evenodd" d="M40.4401 6.21973L27.9671 0C26.6795 1.7918 23.8287 3.04219 20.5039 3.04219C17.179 3.04219 14.3282 1.7918 13.0406 0L0.567609 6.21973C0.061515 6.47754 -0.143485 7.09629 0.106359 7.60547L3.77073 14.9854C4.02698 15.4945 4.64198 15.7008 5.14808 15.4494L8.77401 13.6641C9.45308 13.3289 10.2475 13.8252 10.2475 14.5922V30.9375C10.2475 32.0783 11.1635 33 12.2975 33H28.6975C29.8314 33 30.7475 32.0783 30.7475 30.9375V14.5857C30.7475 13.8252 31.5418 13.3225 32.2209 13.6576L35.8468 15.443C36.3529 15.7008 36.9679 15.4945 37.2242 14.9789L40.895 7.60547C41.1512 7.09629 40.9462 6.47109 40.4401 6.21973ZM7.44724 10.9734L7.44626 10.9739Z"/>
</mask>
<path d="M5.58373 11.891L3.7924 12.7804L4.67889 14.5658L6.4672 13.6853L5.58373 11.891ZM3.6653 8.02734L2.7728 6.23753L0.986023 7.12852L1.87397 8.9168L3.6653 8.02734ZM12.4792 3.63221L13.6712 2.02624L12.6854 1.29454L11.5867 1.8424L12.4792 3.63221ZM28.5285 3.63221L29.421 1.8424L28.3223 1.29454L27.3365 2.02624L28.5285 3.63221ZM37.3354 8.02387L39.1258 8.9152L40.0166 7.12597L38.228 6.23405L37.3354 8.02387ZM6.56278 9.1796L4.70025 10.0967L6.4672 13.6853L8.32973 12.7682L6.56278 9.1796ZM7.37506 11.0015L5.45663 7.13788L1.87397 8.9168L3.7924 12.7804L7.37506 11.0015ZM4.5578 9.81716L13.3718 5.42203L11.5867 1.8424L2.7728 6.23753L4.5578 9.81716ZM11.2873 5.23819C13.8589 7.14691 17.2514 8.04219 20.5039 8.04219V4.04219C17.9109 4.04219 15.409 3.31607 13.6712 2.02624L11.2873 5.23819ZM20.5039 8.04219C23.7564 8.04219 27.1488 7.14691 29.7205 5.23819L27.3365 2.02624C25.5987 3.31606 23.0968 4.04219 20.5039 4.04219V8.04219ZM27.636 5.42203L36.4429 9.81368L38.228 6.23405L29.421 1.8424L27.636 5.42203ZM35.545 7.13254L33.6226 10.9941L37.2034 12.7768L39.1258 8.9152L35.545 7.13254ZM40.4401 6.21973L38.6551 9.79936L38.6608 9.80218L40.4401 6.21973ZM27.9671 0L29.7521 -3.57963L26.7056 -5.09881L24.7189 -2.33431L27.9671 0ZM13.0406 0L16.2888 -2.33431L14.3021 -5.09881L11.2556 -3.57963L13.0406 0ZM0.567609 6.21973L-1.2174 2.6401L-1.23275 2.64775L-1.24804 2.65554L0.567609 6.21973ZM0.106359 7.60547L-3.48464 9.3675L-3.48049 9.37595L-3.4763 9.38439L0.106359 7.60547ZM3.77073 14.9854L0.188074 16.7643L0.192859 16.7739L0.197697 16.7835L3.77073 14.9854ZM5.14808 15.4494L3.38111 11.8608L3.36874 11.867L5.14808 15.4494ZM8.77401 13.6641L10.541 17.2526L10.5444 17.251L8.77401 13.6641ZM32.2209 13.6576L30.4505 17.2445L30.4539 17.2462L32.2209 13.6576ZM35.8468 15.443L37.6625 11.8788L37.6382 11.8664L37.6138 11.8544L35.8468 15.443ZM37.2242 14.9789L33.6434 13.1962L33.6421 13.1987L37.2242 14.9789ZM40.895 7.60547L37.3219 5.80731L37.318 5.81505L37.3142 5.82281L40.895 7.60547ZM42.2251 2.6401L29.7521 -3.57963L26.1821 3.57963L38.6551 9.79936L42.2251 2.6401ZM24.7189 -2.33431C24.6154 -2.19023 24.258 -1.831 23.4625 -1.49992C22.6956 -1.18073 21.6783 -0.957813 20.5039 -0.957813V7.04219C24.6039 7.04219 28.9201 5.52819 31.2154 2.33431L24.7189 -2.33431ZM20.5039 -0.957813C19.3294 -0.957813 18.3122 -1.18073 17.5452 -1.49992C16.7497 -1.831 16.3923 -2.19023 16.2888 -2.33431L9.79235 2.33431C12.0876 5.52819 16.4039 7.04219 20.5039 7.04219V-0.957813ZM11.2556 -3.57963L-1.2174 2.6401L2.35261 9.79936L14.8256 3.57963L11.2556 -3.57963ZM-1.24804 2.65554C-3.70742 3.90839 -4.69452 6.90176 -3.48464 9.3675L3.69736 5.84344C4.40755 7.29081 3.83045 9.04669 2.38326 9.78391L-1.24804 2.65554ZM-3.4763 9.38439L0.188074 16.7643L7.35339 13.2064L3.68902 5.82655L-3.4763 9.38439ZM0.197697 16.7835C1.43397 19.2401 4.43151 20.2715 6.92741 19.0319L3.36874 11.867C4.85246 11.13 6.61999 11.749 7.34377 13.1872L0.197697 16.7835ZM6.91503 19.038L10.541 17.2526L7.00706 10.0755L3.38112 11.8608L6.91503 19.038ZM10.5444 17.251C8.52285 18.2487 6.24745 16.7425 6.24745 14.5922H14.2475C14.2475 10.9079 10.3833 8.40912 7.00367 10.0772L10.5444 17.251ZM6.24745 14.5922V30.9375H14.2475V14.5922H6.24745ZM6.24745 30.9375C6.24745 34.2645 8.93151 37 12.2975 37V29C13.3956 29 14.2475 29.8921 14.2475 30.9375H6.24745ZM12.2975 37H28.6975V29H12.2975V37ZM28.6975 37C32.0634 37 34.7475 34.2645 34.7475 30.9375H26.7475C26.7475 29.8921 27.5993 29 28.6975 29V37ZM34.7475 30.9375V14.5857H26.7475V30.9375H34.7475ZM34.7475 14.5857C34.7475 16.7218 32.4904 18.2513 30.4505 17.2445L33.9912 10.0707C30.5932 8.3936 26.7475 10.9286 26.7475 14.5857H34.7475ZM30.4539 17.2462L34.0799 19.0315L37.6138 11.8544L33.9878 10.069L30.4539 17.2462ZM34.0312 19.0072C36.5555 20.2931 39.5779 19.2306 40.8062 16.7591L33.6421 13.1987C34.3579 11.7585 36.1503 11.1085 37.6625 11.8788L34.0312 19.0072ZM40.805 16.7616L44.4758 9.38813L37.3142 5.82281L33.6434 13.1962L40.805 16.7616ZM44.468 9.40363C45.7049 6.94574 44.7433 3.89085 42.2194 2.63728L38.6608 9.80218C37.1491 9.05134 36.5975 7.24684 37.3219 5.80731L44.468 9.40363ZM5.67726 7.38632L5.67628 7.3868L9.21623 14.561L9.21721 14.5605L5.67726 7.38632Z" fill="#6ACE74" mask="url(#path-1-inside-1)"/>
</svg>
