<svg width="36" height="33" viewBox="0 0 36 33" fill="none" xmlns="http://www.w3.org/2000/svg">
<path d="M17.9559 4.94856L17.2256 4.168C13.6738 0.371515 8.02516 -0.0581122 4.42209 3.12921L4.42173 3.12952C-0.362202 7.3574 0.305944 14.3002 3.7471 17.9872L16.0491 31.1462L16.0495 31.1466C16.5704 31.7045 17.2494 32 17.9559 32C18.6733 32 19.3441 31.7089 19.8623 31.154L19.8627 31.1536L32.164 17.9953C32.1642 17.9951 32.1643 17.9949 32.1645 17.9947C35.6 14.3063 36.2797 7.36403 31.4904 3.12988L17.9559 4.94856ZM17.9559 4.94856L18.6861 4.168M17.9559 4.94856L18.6861 4.168M18.6861 4.168C22.237 0.37253 27.8861 -0.0518316 31.4902 3.12972L18.6861 4.168ZM31.2274 16.8708L31.2276 16.8706C34.086 13.8114 34.7211 7.94121 30.6479 4.33417L30.6474 4.33375C27.4806 1.53296 22.6573 1.99698 19.6804 5.18039L19.6799 5.18091L17.9559 7.02717L16.2319 5.18091L16.2314 5.18042C13.2687 2.01197 8.44606 1.53304 5.26513 4.34043L5.26461 4.34089C1.18412 7.94727 1.80388 13.7885 4.68421 16.8706L4.68433 16.8708L16.9869 30.0303L16.9869 30.0304L16.9933 30.0371C17.1478 30.1993 17.471 30.48 17.9559 30.48C18.4407 30.48 18.764 30.1993 18.9185 30.0371L18.9185 30.0371L18.9248 30.0303L31.2274 16.8708Z" stroke="#F05656" stroke-width="2"/>
</svg>
