<svg width="19" height="15" viewBox="0 0 19 15" fill="none" xmlns="http://www.w3.org/2000/svg">
<path fill-rule="evenodd" clip-rule="evenodd" d="M8.43125 11.0625H7.6C7.3625 11.0625 7.125 10.825 7.125 10.5875V3.225C7.125 2.9875 7.3625 2.75 7.6 2.75H8.43125C8.66875 2.75 8.90625 2.9875 8.90625 3.225V10.5875C8.90625 10.825 8.66875 11.0625 8.43125 11.0625ZM11.9938 11.0625H11.1625C10.925 11.0625 10.6875 10.825 10.6875 10.5875V5.6C10.6875 5.3625 10.925 5.125 11.1625 5.125H11.9938C12.2313 5.125 12.4688 5.3625 12.4688 5.6V10.5875C12.4688 10.825 12.2313 11.0625 11.9938 11.0625ZM1.78125 12.8437H18.4062C18.7343 12.8437 19 13.1095 19 13.4375V14.0312C19 14.3593 18.7343 14.625 18.4062 14.625H1.1875C0.531777 14.625 0 14.0932 0 13.4375V0.96875C0 0.640703 0.265703 0.375 0.59375 0.375H1.1875C1.51555 0.375 1.78125 0.640703 1.78125 0.96875V12.8437ZM4.86875 11.0625H4.0375C3.8 11.0625 3.5625 10.825 3.5625 10.5875V7.975C3.5625 7.7375 3.8 7.5 4.0375 7.5H4.86875C5.10625 7.5 5.34375 7.7375 5.34375 7.975V10.5875C5.34375 10.825 5.10625 11.0625 4.86875 11.0625Z" fill="#724CB4"/>
<path d="M14.725 11.0625H15.5563C15.7938 11.0625 16.0312 10.825 16.0312 10.5875V2.0375C16.0312 1.8 15.7938 1.5625 15.5563 1.5625H14.725C14.4875 1.5625 14.25 1.8 14.25 2.0375V10.5875C14.25 10.825 14.4875 11.0625 14.725 11.0625Z" fill="#724CB4"/>
</svg>
