<svg width="19" height="17" viewBox="0 0 19 17" fill="none" xmlns="http://www.w3.org/2000/svg">
<path d="M17.1148 3.75H2.96875C2.6407 3.75 2.375 3.4843 2.375 3.15625C2.375 2.8282 2.6407 2.5625 2.96875 2.5625H17.2188C17.5468 2.5625 17.8125 2.2968 17.8125 1.96875C17.8125 0.98498 17.015 0.1875 16.0312 0.1875H2.375C1.06318 0.1875 0 1.25068 0 2.5625V14.4375C0 15.7493 1.06318 16.8125 2.375 16.8125H17.1148C18.1546 16.8125 19 16.0135 19 15.0312V5.53125C19 4.54896 18.1546 3.75 17.1148 3.75ZM15.4375 11.4688C14.7818 11.4688 14.25 10.937 14.25 10.2812C14.25 9.62553 14.7818 9.09375 15.4375 9.09375C16.0932 9.09375 16.625 9.62553 16.625 10.2812C16.625 10.937 16.0932 11.4688 15.4375 11.4688Z" fill="#79B036"/>
</svg>
