<svg width="19" height="15" viewBox="0 0 19 15" fill="none" xmlns="http://www.w3.org/2000/svg">
<path d="M9.24832 3.92268L3.16667 8.96458V14.4062C3.16667 14.5471 3.22228 14.6823 3.32125 14.7819C3.42023 14.8815 3.55447 14.9375 3.69445 14.9375L7.39087 14.9279C7.53039 14.9272 7.66396 14.8709 7.76236 14.7713C7.86077 14.6718 7.91601 14.537 7.91601 14.3966V11.2187C7.91601 11.0778 7.97162 10.9427 8.07059 10.8431C8.16957 10.7435 8.30381 10.6875 8.44379 10.6875H10.5549C10.6949 10.6875 10.8291 10.7435 10.9281 10.8431C11.0271 10.9427 11.0827 11.0778 11.0827 11.2187V14.3943C11.0825 14.4642 11.096 14.5335 11.1224 14.5981C11.1488 14.6627 11.1876 14.7215 11.2367 14.771C11.2857 14.8205 11.344 14.8598 11.4081 14.8866C11.4722 14.9134 11.541 14.9272 11.6105 14.9272L15.3056 14.9375C15.4455 14.9375 15.5798 14.8815 15.6788 14.7819C15.7777 14.6823 15.8333 14.5471 15.8333 14.4062V8.96093L9.75301 3.92268C9.68153 3.86469 9.59248 3.83306 9.50066 3.83306C9.40885 3.83306 9.3198 3.86469 9.24832 3.92268ZM18.8549 7.34958L16.0972 5.06155V0.462586C16.0972 0.356913 16.0555 0.255569 15.9813 0.180848C15.9071 0.106126 15.8064 0.0641479 15.7014 0.0641479H13.8542C13.7492 0.0641479 13.6485 0.106126 13.5743 0.180848C13.5 0.255569 13.4583 0.356913 13.4583 0.462586V2.87346L10.5051 0.427722C10.2217 0.192969 9.86605 0.0646172 9.49902 0.0646172C9.13198 0.0646172 8.77635 0.192969 8.49294 0.427722L0.143166 7.34958C0.103084 7.38293 0.0699219 7.4239 0.0455755 7.47015C0.0212291 7.5164 0.00617516 7.56703 0.00127389 7.61914C-0.00362739 7.67125 0.00172003 7.72382 0.0170106 7.77385C0.0323012 7.82388 0.0572352 7.87039 0.090388 7.91071L0.931534 8.94001C0.964596 8.98048 1.00526 9.01398 1.05121 9.03861C1.09715 9.06323 1.14747 9.0785 1.19928 9.08353C1.25109 9.08855 1.30338 9.08324 1.35315 9.0679C1.40292 9.05256 1.4492 9.0275 1.48933 8.99413L9.24832 2.56136C9.3198 2.50336 9.40885 2.47173 9.50066 2.47173C9.59248 2.47173 9.68153 2.50336 9.75301 2.56136L17.5123 8.99413C17.5524 9.0275 17.5986 9.0526 17.6483 9.06799C17.698 9.08338 17.7502 9.08876 17.802 9.08383C17.8538 9.0789 17.9041 9.06374 17.95 9.03924C17.996 9.01473 18.0367 8.98135 18.0698 8.941L18.9109 7.91171C18.9441 7.87115 18.9689 7.8244 18.984 7.77415C18.9991 7.72391 19.0042 7.67115 18.999 7.61891C18.9938 7.56667 18.9784 7.51599 18.9536 7.46977C18.9289 7.42354 18.8953 7.3827 18.8549 7.34958Z" fill="#EAB83A"/>
</svg>
