<svg width="19" height="17" viewBox="0 0 19 17" fill="none" xmlns="http://www.w3.org/2000/svg">
<path d="M18.4062 13.25H5.9375V12.6562C5.9375 12.3297 5.67031 12.0625 5.34375 12.0625H4.15625C3.82969 12.0625 3.5625 12.3297 3.5625 12.6562V13.25H0.59375C0.267188 13.25 0 13.5172 0 13.8438V15.0312C0 15.3578 0.267188 15.625 0.59375 15.625H3.5625V16.2188C3.5625 16.5453 3.82969 16.8125 4.15625 16.8125H5.34375C5.67031 16.8125 5.9375 16.5453 5.9375 16.2188V15.625H18.4062C18.7328 15.625 19 15.3578 19 15.0312V13.8438C19 13.5172 18.7328 13.25 18.4062 13.25ZM18.4062 7.3125H15.4375V6.71875C15.4375 6.39219 15.1703 6.125 14.8438 6.125H13.6562C13.3297 6.125 13.0625 6.39219 13.0625 6.71875V7.3125H0.59375C0.267188 7.3125 0 7.57969 0 7.90625V9.09375C0 9.42031 0.267188 9.6875 0.59375 9.6875H13.0625V10.2812C13.0625 10.6078 13.3297 10.875 13.6562 10.875H14.8438C15.1703 10.875 15.4375 10.6078 15.4375 10.2812V9.6875H18.4062C18.7328 9.6875 19 9.42031 19 9.09375V7.90625C19 7.57969 18.7328 7.3125 18.4062 7.3125ZM18.4062 1.375H10.6875V0.78125C10.6875 0.454688 10.4203 0.1875 10.0938 0.1875H8.90625C8.57969 0.1875 8.3125 0.454688 8.3125 0.78125V1.375H0.59375C0.267188 1.375 0 1.64219 0 1.96875V3.15625C0 3.48281 0.267188 3.75 0.59375 3.75H8.3125V4.34375C8.3125 4.67031 8.57969 4.9375 8.90625 4.9375H10.0938C10.4203 4.9375 10.6875 4.67031 10.6875 4.34375V3.75H18.4062C18.7328 3.75 19 3.48281 19 3.15625V1.96875C19 1.64219 18.7328 1.375 18.4062 1.375Z" fill="#58D3DC"/>
</svg>
