<svg width="18" height="19" viewBox="0 0 18 19" fill="none" xmlns="http://www.w3.org/2000/svg">
<path d="M9 3.85938C7.07661 3.85938 5.51613 5.45508 5.51613 7.42188C5.51613 9.38867 7.07661 10.9844 9 10.9844C10.9234 10.9844 12.4839 9.38867 12.4839 7.42188C12.4839 5.45508 10.9234 3.85938 9 3.85938ZM9 9.20312C8.03831 9.20312 7.25806 8.40527 7.25806 7.42188C7.25806 6.43848 8.03831 5.64062 9 5.64062C9.96169 5.64062 10.7419 6.43848 10.7419 7.42188C10.7419 8.40527 9.96169 9.20312 9 9.20312ZM9 0.296875C4.02823 0.296875 0 4.41602 0 9.5C0 14.584 4.02823 18.7031 9 18.7031C13.9718 18.7031 18 14.584 18 9.5C18 4.41602 13.9718 0.296875 9 0.296875ZM9 16.9219C7.19637 16.9219 5.54879 16.2428 4.27863 15.1258C4.81935 14.2723 5.74476 13.6934 6.80444 13.66C7.55927 13.8975 8.27782 14.0162 9 14.0162C9.72218 14.0162 10.4407 13.9012 11.1956 13.66C12.2552 13.6971 13.1806 14.2723 13.7214 15.1258C12.4512 16.2428 10.8036 16.9219 9 16.9219ZM14.9044 13.801C14.019 12.6357 12.6508 11.875 11.0903 11.875C10.7202 11.875 10.1468 12.2312 9 12.2312C7.85685 12.2312 7.27984 11.875 6.90968 11.875C5.35282 11.875 3.98468 12.6357 3.09556 13.801C2.24637 12.5875 1.74194 11.1031 1.74194 9.5C1.74194 5.40684 4.99718 2.07812 9 2.07812C13.0028 2.07812 16.2581 5.40684 16.2581 9.5C16.2581 11.1031 15.7536 12.5875 14.9044 13.801Z" fill="#294661"/>
</svg>
